<mxfile host="app.diagrams.net" agent="Mozilla/5.0 (Windows NT 10.0; Win64; x64) AppleWebKit/537.36 (KHTML, like Gecko) Chrome/128.0.0.0 Safari/537.36 OPR/114.0.0.0 (Edition MSI)" version="24.8.6">
  <diagram name="Страница — 1" id="tJWHBo-NuKDa7qp_uTNU">
    <mxGraphModel dx="1074" dy="715" grid="0" gridSize="10" guides="1" tooltips="1" connect="1" arrows="1" fold="1" page="1" pageScale="1" pageWidth="3300" pageHeight="4681" math="0" shadow="0">
      <root>
        <mxCell id="0" />
        <mxCell id="1" parent="0" />
        <mxCell id="FfOejDAqu6Li9HFzSHTp-1" value="Model.LibraryManagerImpl" style="swimlane;fontStyle=0;childLayout=stackLayout;horizontal=1;startSize=26;fillColor=none;horizontalStack=0;resizeParent=1;resizeParentMax=0;resizeLast=0;collapsible=1;marginBottom=0;whiteSpace=wrap;html=1;" vertex="1" parent="1">
          <mxGeometry x="165" y="450" width="140" height="52" as="geometry" />
        </mxCell>
        <mxCell id="FfOejDAqu6Li9HFzSHTp-3" value="+ books: List&amp;lt;Model.Book&amp;gt;" style="text;strokeColor=none;fillColor=none;align=left;verticalAlign=top;spacingLeft=4;spacingRight=4;overflow=hidden;rotatable=0;points=[[0,0.5],[1,0.5]];portConstraint=eastwest;whiteSpace=wrap;html=1;" vertex="1" parent="FfOejDAqu6Li9HFzSHTp-1">
          <mxGeometry y="26" width="140" height="26" as="geometry" />
        </mxCell>
        <mxCell id="FfOejDAqu6Li9HFzSHTp-6" value="&lt;p style=&quot;margin:0px;margin-top:4px;text-align:center;&quot;&gt;&lt;i&gt;&amp;lt;&amp;lt;Interface&amp;gt;&amp;gt;&lt;/i&gt;&lt;br&gt;&lt;b&gt;Model.LibraryManager&lt;/b&gt;&lt;/p&gt;&lt;hr size=&quot;1&quot; style=&quot;border-style:solid;&quot;&gt;&lt;p style=&quot;margin:0px;margin-left:4px;&quot;&gt;+ addBook(Model.Book, Integer): void&lt;br&gt;+ writeOff(Model.Book, Integer): void&lt;/p&gt;&lt;p style=&quot;margin:0px;margin-left:4px;&quot;&gt;+ isAvaiilable(Model.Book): Boolean&lt;/p&gt;&lt;p style=&quot;margin:0px;margin-left:4px;&quot;&gt;+ getBooks(): List&amp;lt;Model.Book&amp;gt;&lt;/p&gt;" style="verticalAlign=top;align=left;overflow=fill;html=1;whiteSpace=wrap;" vertex="1" parent="1">
          <mxGeometry x="140" y="280" width="190" height="110" as="geometry" />
        </mxCell>
        <mxCell id="FfOejDAqu6Li9HFzSHTp-7" value="" style="endArrow=block;dashed=1;endFill=0;endSize=12;html=1;rounded=0;entryX=0.5;entryY=1;entryDx=0;entryDy=0;exitX=0.5;exitY=0;exitDx=0;exitDy=0;" edge="1" parent="1" source="FfOejDAqu6Li9HFzSHTp-1" target="FfOejDAqu6Li9HFzSHTp-6">
          <mxGeometry width="160" relative="1" as="geometry">
            <mxPoint x="165" y="400" as="sourcePoint" />
            <mxPoint x="325" y="400" as="targetPoint" />
          </mxGeometry>
        </mxCell>
        <mxCell id="FfOejDAqu6Li9HFzSHTp-8" value="&lt;p style=&quot;margin:0px;margin-top:4px;text-align:center;&quot;&gt;&lt;i&gt;&amp;lt;&amp;lt;Interface&amp;gt;&amp;gt;&lt;/i&gt;&lt;br&gt;&lt;b&gt;Model.OrdersManager&lt;/b&gt;&lt;/p&gt;&lt;hr size=&quot;1&quot; style=&quot;border-style:solid;&quot;&gt;&lt;p style=&quot;margin:0px;margin-left:4px;&quot;&gt;+ addOrder(Model.Order): void&lt;br&gt;+ cancelOrder(Model.Order): void&lt;/p&gt;&lt;p style=&quot;margin:0px;margin-left:4px;&quot;&gt;+ setOrderStatus(Model.Order, Model.OrderStatus): void&lt;/p&gt;&lt;p style=&quot;margin:0px;margin-left:4px;&quot;&gt;+ closeRequests(Model.Book): void&lt;/p&gt;&lt;p style=&quot;margin:0px;margin-left:4px;&quot;&gt;+ getOrders(): List&amp;lt;Model.Order&amp;gt;&lt;/p&gt;" style="verticalAlign=top;align=left;overflow=fill;html=1;whiteSpace=wrap;" vertex="1" parent="1">
          <mxGeometry x="660" y="270" width="270" height="120" as="geometry" />
        </mxCell>
        <mxCell id="FfOejDAqu6Li9HFzSHTp-9" value="Model.OrdersManagerImpl" style="swimlane;fontStyle=0;childLayout=stackLayout;horizontal=1;startSize=26;fillColor=none;horizontalStack=0;resizeParent=1;resizeParentMax=0;resizeLast=0;collapsible=1;marginBottom=0;whiteSpace=wrap;html=1;" vertex="1" parent="1">
          <mxGeometry x="725" y="450" width="140" height="52" as="geometry" />
        </mxCell>
        <mxCell id="FfOejDAqu6Li9HFzSHTp-10" value="+ orders: List&amp;lt;Model.Order&amp;gt;" style="text;strokeColor=none;fillColor=none;align=left;verticalAlign=top;spacingLeft=4;spacingRight=4;overflow=hidden;rotatable=0;points=[[0,0.5],[1,0.5]];portConstraint=eastwest;whiteSpace=wrap;html=1;" vertex="1" parent="FfOejDAqu6Li9HFzSHTp-9">
          <mxGeometry y="26" width="140" height="26" as="geometry" />
        </mxCell>
        <mxCell id="FfOejDAqu6Li9HFzSHTp-11" value="" style="endArrow=block;dashed=1;endFill=0;endSize=12;html=1;rounded=0;entryX=0.5;entryY=1;entryDx=0;entryDy=0;exitX=0.5;exitY=0;exitDx=0;exitDy=0;" edge="1" parent="1" source="FfOejDAqu6Li9HFzSHTp-9" target="FfOejDAqu6Li9HFzSHTp-8">
          <mxGeometry width="160" relative="1" as="geometry">
            <mxPoint x="740" y="400" as="sourcePoint" />
            <mxPoint x="810" y="350" as="targetPoint" />
          </mxGeometry>
        </mxCell>
        <mxCell id="FfOejDAqu6Li9HFzSHTp-12" value="&lt;p style=&quot;margin:0px;margin-top:4px;text-align:center;&quot;&gt;&lt;i&gt;&amp;lt;&amp;lt;Interface&amp;gt;&amp;gt;&lt;/i&gt;&lt;br&gt;&lt;b&gt;Model.MainManager&lt;/b&gt;&lt;/p&gt;&lt;hr size=&quot;1&quot; style=&quot;border-style:solid;&quot;&gt;&lt;p style=&quot;margin:0px;margin-left:4px;&quot;&gt;&lt;span style=&quot;background-color: initial;&quot;&gt;+ addBook(Model.Book, Integer): void&lt;/span&gt;&lt;br&gt;&lt;/p&gt;&lt;p style=&quot;margin:0px;margin-left:4px;&quot;&gt;+ writeOff(Model.Book, Integer): void&lt;br&gt;&lt;/p&gt;&lt;p style=&quot;margin:0px;margin-left:4px;&quot;&gt;+ createOrder(Model.Book): void&lt;/p&gt;&lt;p style=&quot;margin:0px;margin-left:4px;&quot;&gt;+ cancelOrder(Model.Order): void&lt;br&gt;&lt;/p&gt;&lt;p style=&quot;margin:0px;margin-left:4px;&quot;&gt;+ setOrderStatus(Model.Order, Model.OrderStatus): void&lt;/p&gt;&lt;p style=&quot;margin:0px;margin-left:4px;&quot;&gt;&lt;br&gt;&lt;/p&gt;" style="verticalAlign=top;align=left;overflow=fill;html=1;whiteSpace=wrap;" vertex="1" parent="1">
          <mxGeometry x="360" y="270" width="270" height="120" as="geometry" />
        </mxCell>
        <mxCell id="FfOejDAqu6Li9HFzSHTp-13" value="Model.MainManagerImpl" style="swimlane;fontStyle=0;childLayout=stackLayout;horizontal=1;startSize=26;fillColor=none;horizontalStack=0;resizeParent=1;resizeParentMax=0;resizeLast=0;collapsible=1;marginBottom=0;whiteSpace=wrap;html=1;" vertex="1" parent="1">
          <mxGeometry x="390" y="441" width="210" height="70" as="geometry" />
        </mxCell>
        <mxCell id="FfOejDAqu6Li9HFzSHTp-14" value="+ libraryManager: Model.LibraryManager&lt;div&gt;+ ordersManager: Model.OrdersManager&lt;/div&gt;" style="text;strokeColor=none;fillColor=none;align=left;verticalAlign=top;spacingLeft=4;spacingRight=4;overflow=hidden;rotatable=0;points=[[0,0.5],[1,0.5]];portConstraint=eastwest;whiteSpace=wrap;html=1;" vertex="1" parent="FfOejDAqu6Li9HFzSHTp-13">
          <mxGeometry y="26" width="210" height="44" as="geometry" />
        </mxCell>
        <mxCell id="FfOejDAqu6Li9HFzSHTp-15" value="" style="endArrow=block;dashed=1;endFill=0;endSize=12;html=1;rounded=0;exitX=0.5;exitY=0;exitDx=0;exitDy=0;" edge="1" parent="1" source="FfOejDAqu6Li9HFzSHTp-13" target="FfOejDAqu6Li9HFzSHTp-12">
          <mxGeometry width="160" relative="1" as="geometry">
            <mxPoint x="425" y="420" as="sourcePoint" />
            <mxPoint x="495" y="370" as="targetPoint" />
          </mxGeometry>
        </mxCell>
        <mxCell id="FfOejDAqu6Li9HFzSHTp-21" value="Model.Book" style="swimlane;fontStyle=0;childLayout=stackLayout;horizontal=1;startSize=26;fillColor=none;horizontalStack=0;resizeParent=1;resizeParentMax=0;resizeLast=0;collapsible=1;marginBottom=0;whiteSpace=wrap;html=1;" vertex="1" parent="1">
          <mxGeometry x="140" y="560" width="190" height="130" as="geometry" />
        </mxCell>
        <mxCell id="FfOejDAqu6Li9HFzSHTp-22" value="+ name: String" style="text;strokeColor=none;fillColor=none;align=left;verticalAlign=top;spacingLeft=4;spacingRight=4;overflow=hidden;rotatable=0;points=[[0,0.5],[1,0.5]];portConstraint=eastwest;whiteSpace=wrap;html=1;" vertex="1" parent="FfOejDAqu6Li9HFzSHTp-21">
          <mxGeometry y="26" width="190" height="26" as="geometry" />
        </mxCell>
        <mxCell id="FfOejDAqu6Li9HFzSHTp-23" value="+ author: String" style="text;strokeColor=none;fillColor=none;align=left;verticalAlign=top;spacingLeft=4;spacingRight=4;overflow=hidden;rotatable=0;points=[[0,0.5],[1,0.5]];portConstraint=eastwest;whiteSpace=wrap;html=1;" vertex="1" parent="FfOejDAqu6Li9HFzSHTp-21">
          <mxGeometry y="52" width="190" height="26" as="geometry" />
        </mxCell>
        <mxCell id="FfOejDAqu6Li9HFzSHTp-24" value="+ status: Model.BookStatus" style="text;strokeColor=none;fillColor=none;align=left;verticalAlign=top;spacingLeft=4;spacingRight=4;overflow=hidden;rotatable=0;points=[[0,0.5],[1,0.5]];portConstraint=eastwest;whiteSpace=wrap;html=1;" vertex="1" parent="FfOejDAqu6Li9HFzSHTp-21">
          <mxGeometry y="78" width="190" height="26" as="geometry" />
        </mxCell>
        <mxCell id="FfOejDAqu6Li9HFzSHTp-25" value="+ amount: Integer" style="text;strokeColor=none;fillColor=none;align=left;verticalAlign=top;spacingLeft=4;spacingRight=4;overflow=hidden;rotatable=0;points=[[0,0.5],[1,0.5]];portConstraint=eastwest;whiteSpace=wrap;html=1;" vertex="1" parent="FfOejDAqu6Li9HFzSHTp-21">
          <mxGeometry y="104" width="190" height="26" as="geometry" />
        </mxCell>
        <mxCell id="FfOejDAqu6Li9HFzSHTp-26" value="Model.Order" style="swimlane;fontStyle=0;childLayout=stackLayout;horizontal=1;startSize=26;fillColor=none;horizontalStack=0;resizeParent=1;resizeParentMax=0;resizeLast=0;collapsible=1;marginBottom=0;whiteSpace=wrap;html=1;" vertex="1" parent="1">
          <mxGeometry x="725" y="560" width="140" height="78" as="geometry" />
        </mxCell>
        <mxCell id="FfOejDAqu6Li9HFzSHTp-27" value="+ book: Model.Book" style="text;strokeColor=none;fillColor=none;align=left;verticalAlign=top;spacingLeft=4;spacingRight=4;overflow=hidden;rotatable=0;points=[[0,0.5],[1,0.5]];portConstraint=eastwest;whiteSpace=wrap;html=1;" vertex="1" parent="FfOejDAqu6Li9HFzSHTp-26">
          <mxGeometry y="26" width="140" height="26" as="geometry" />
        </mxCell>
        <mxCell id="FfOejDAqu6Li9HFzSHTp-28" value="+ status: Model.OrderStatus" style="text;strokeColor=none;fillColor=none;align=left;verticalAlign=top;spacingLeft=4;spacingRight=4;overflow=hidden;rotatable=0;points=[[0,0.5],[1,0.5]];portConstraint=eastwest;whiteSpace=wrap;html=1;" vertex="1" parent="FfOejDAqu6Li9HFzSHTp-26">
          <mxGeometry y="52" width="140" height="26" as="geometry" />
        </mxCell>
        <mxCell id="FfOejDAqu6Li9HFzSHTp-38" value="&lt;p style=&quot;margin:0px;margin-top:4px;text-align:center;&quot;&gt;&lt;i&gt;&amp;lt;&amp;lt;Enumeration&amp;gt;&amp;gt;&lt;/i&gt;&lt;br&gt;&lt;b&gt;Model.BookStatus&lt;/b&gt;&lt;/p&gt;&lt;hr size=&quot;1&quot; style=&quot;border-style:solid;&quot;&gt;&lt;p style=&quot;margin:0px;margin-left:4px;&quot;&gt;Available&lt;/p&gt;&lt;p style=&quot;margin:0px;margin-left:4px;&quot;&gt;NotAvailable&lt;/p&gt;" style="verticalAlign=top;align=left;overflow=fill;html=1;whiteSpace=wrap;" vertex="1" parent="1">
          <mxGeometry x="170" y="740" width="130" height="80" as="geometry" />
        </mxCell>
        <mxCell id="FfOejDAqu6Li9HFzSHTp-39" value="&lt;p style=&quot;margin:0px;margin-top:4px;text-align:center;&quot;&gt;&lt;i&gt;&amp;lt;&amp;lt;Enumeration&amp;gt;&amp;gt;&lt;/i&gt;&lt;br&gt;&lt;b&gt;Model.OrderStatus&lt;/b&gt;&lt;/p&gt;&lt;hr size=&quot;1&quot; style=&quot;border-style:solid;&quot;&gt;&lt;p style=&quot;margin:0px;margin-left:4px;&quot;&gt;New&lt;/p&gt;&lt;p style=&quot;margin:0px;margin-left:4px;&quot;&gt;Completed&lt;/p&gt;&lt;p style=&quot;margin:0px;margin-left:4px;&quot;&gt;NotCompleted&lt;/p&gt;" style="verticalAlign=top;align=left;overflow=fill;html=1;whiteSpace=wrap;" vertex="1" parent="1">
          <mxGeometry x="740" y="690" width="110" height="95" as="geometry" />
        </mxCell>
        <mxCell id="FfOejDAqu6Li9HFzSHTp-40" value="" style="endArrow=diamondThin;endFill=0;endSize=24;html=1;rounded=0;exitX=0.5;exitY=0;exitDx=0;exitDy=0;" edge="1" parent="1" source="FfOejDAqu6Li9HFzSHTp-21" target="FfOejDAqu6Li9HFzSHTp-3">
          <mxGeometry width="160" relative="1" as="geometry">
            <mxPoint x="420" y="580" as="sourcePoint" />
            <mxPoint x="580" y="580" as="targetPoint" />
          </mxGeometry>
        </mxCell>
        <mxCell id="FfOejDAqu6Li9HFzSHTp-41" value="" style="endArrow=diamondThin;endFill=0;endSize=24;html=1;rounded=0;exitX=0.5;exitY=0;exitDx=0;exitDy=0;" edge="1" parent="1" source="FfOejDAqu6Li9HFzSHTp-26" target="FfOejDAqu6Li9HFzSHTp-10">
          <mxGeometry width="160" relative="1" as="geometry">
            <mxPoint x="245" y="570" as="sourcePoint" />
            <mxPoint x="670" y="530" as="targetPoint" />
          </mxGeometry>
        </mxCell>
        <mxCell id="FfOejDAqu6Li9HFzSHTp-42" value="" style="endArrow=diamondThin;endFill=0;endSize=24;html=1;rounded=0;exitX=0.5;exitY=0;exitDx=0;exitDy=0;" edge="1" parent="1" source="FfOejDAqu6Li9HFzSHTp-38" target="FfOejDAqu6Li9HFzSHTp-25">
          <mxGeometry width="160" relative="1" as="geometry">
            <mxPoint x="440" y="748" as="sourcePoint" />
            <mxPoint x="240" y="710" as="targetPoint" />
          </mxGeometry>
        </mxCell>
        <mxCell id="FfOejDAqu6Li9HFzSHTp-43" value="" style="endArrow=diamondThin;endFill=0;endSize=24;html=1;rounded=0;exitX=0.5;exitY=0;exitDx=0;exitDy=0;" edge="1" parent="1" source="FfOejDAqu6Li9HFzSHTp-39" target="FfOejDAqu6Li9HFzSHTp-28">
          <mxGeometry width="160" relative="1" as="geometry">
            <mxPoint x="660" y="720" as="sourcePoint" />
            <mxPoint x="660" y="650" as="targetPoint" />
          </mxGeometry>
        </mxCell>
        <mxCell id="FfOejDAqu6Li9HFzSHTp-44" value="" style="endArrow=diamondThin;endFill=0;endSize=24;html=1;rounded=0;exitX=1;exitY=0.25;exitDx=0;exitDy=0;entryX=0;entryY=0.25;entryDx=0;entryDy=0;" edge="1" parent="1" source="FfOejDAqu6Li9HFzSHTp-1" target="FfOejDAqu6Li9HFzSHTp-13">
          <mxGeometry width="160" relative="1" as="geometry">
            <mxPoint x="440" y="588" as="sourcePoint" />
            <mxPoint x="440" y="530" as="targetPoint" />
          </mxGeometry>
        </mxCell>
        <mxCell id="FfOejDAqu6Li9HFzSHTp-45" value="" style="endArrow=diamondThin;endFill=0;endSize=24;html=1;rounded=0;exitX=0;exitY=0.25;exitDx=0;exitDy=0;entryX=1;entryY=0.25;entryDx=0;entryDy=0;" edge="1" parent="1" source="FfOejDAqu6Li9HFzSHTp-9" target="FfOejDAqu6Li9HFzSHTp-13">
          <mxGeometry width="160" relative="1" as="geometry">
            <mxPoint x="600" y="534" as="sourcePoint" />
            <mxPoint x="685" y="530" as="targetPoint" />
          </mxGeometry>
        </mxCell>
      </root>
    </mxGraphModel>
  </diagram>
</mxfile>
